<svg xmlns="http://www.w3.org/2000/svg" xmlns:xlink="http://www.w3.org/1999/xlink" width="500" zoomAndPan="magnify" viewBox="0 0 375 374.999991" height="500" preserveAspectRatio="xMidYMid meet" version="1.0"><defs><g/><clipPath id="0dfc3b031c"><rect x="0" width="133" y="0" height="167"/></clipPath></defs><g fill="#ff5722" fill-opacity="1"><g transform="translate(85.683309, 286.604849)"><g><path d="M 177.375 -29.828125 C 177.375 -25.054688 178.960938 -20.8125 182.140625 -17.09375 C 185.328125 -13.382812 189.175781 -11.132812 193.6875 -10.34375 L 193.6875 -7.953125 L 125.28125 1.984375 C 125.28125 1.984375 125.210938 1.984375 125.078125 1.984375 C 124.941406 1.984375 124.742188 1.984375 124.484375 1.984375 C 122.628906 1.984375 120.972656 1.253906 119.515625 -0.203125 C 118.054688 -1.660156 117.328125 -3.316406 117.328125 -5.171875 L 117.328125 -15.109375 C 112.546875 -11.660156 106.113281 -7.945312 98.03125 -3.96875 C 89.945312 0 80.335938 1.984375 69.203125 1.984375 C 56.742188 1.984375 45.472656 -1.328125 35.390625 -7.953125 C 25.316406 -14.578125 18.820312 -23.457031 15.90625 -34.59375 C 12.726562 -46 13.921875 -57.132812 19.484375 -68 C 25.054688 -78.875 33.273438 -87.625 44.140625 -94.25 C 51.035156 -98.5 59.785156 -102.546875 70.390625 -106.390625 C 80.992188 -110.234375 92.128906 -114.078125 103.796875 -117.921875 C 115.460938 -121.765625 126.398438 -125.738281 136.609375 -129.84375 C 146.816406 -133.957031 155.164062 -138.46875 161.65625 -143.375 C 168.15625 -148.28125 171.40625 -153.78125 171.40625 -159.875 C 171.40625 -165.175781 169.082031 -170.476562 164.4375 -175.78125 C 159.800781 -181.082031 154.304688 -185.328125 147.953125 -188.515625 C 140.253906 -192.222656 131.765625 -194.738281 122.484375 -196.0625 C 113.210938 -197.394531 103.671875 -197.265625 93.859375 -195.671875 C 78.742188 -193.546875 71.1875 -188.507812 71.1875 -180.5625 C 71.1875 -175.789062 72.644531 -171.679688 75.5625 -168.234375 C 78.476562 -164.785156 81.328125 -161.140625 84.109375 -157.296875 C 86.898438 -153.453125 88.296875 -148.476562 88.296875 -142.375 C 88.296875 -133.894531 85.242188 -126.671875 79.140625 -120.703125 C 73.046875 -114.734375 65.753906 -111.75 57.265625 -111.75 C 48.785156 -111.75 41.5625 -114.734375 35.59375 -120.703125 C 29.625 -126.671875 26.640625 -133.894531 26.640625 -142.375 C 26.640625 -152.71875 30.21875 -161.800781 37.375 -169.625 C 44.539062 -177.445312 53.359375 -183.804688 63.828125 -188.703125 C 74.304688 -193.609375 84.179688 -196.726562 93.453125 -198.0625 C 114.671875 -201.238281 133.234375 -198.71875 149.140625 -190.5 C 156.828125 -186.789062 163.453125 -181.554688 169.015625 -174.796875 C 174.585938 -168.035156 177.375 -159.75 177.375 -149.9375 Z M 117.328125 -17.890625 L 117.328125 -120.109375 C 112.023438 -117.722656 106.125 -114.472656 99.625 -110.359375 C 93.125 -106.253906 87.488281 -100.6875 82.71875 -93.65625 C 77.945312 -86.632812 75.164062 -77.554688 74.375 -66.421875 C 73.84375 -56.867188 74.632812 -48.445312 76.75 -41.15625 C 78.875 -33.863281 82.054688 -27.96875 86.296875 -23.46875 C 90.804688 -18.695312 96.039062 -15.78125 102 -14.71875 C 107.96875 -13.65625 113.078125 -14.710938 117.328125 -17.890625 Z M 117.328125 -17.890625 "/></g></g></g><g transform="matrix(1, 0, 0, 1, 210, 40)"><g clip-path="url(#0dfc3b031c)"><g fill="#ff5722" fill-opacity="1"><g transform="translate(8.486316, 49.488966)"><g><path d="M 17.59375 -20.375 L 17.484375 -5.5625 L 14.140625 -4.5 L 8.3125 -12.640625 L 8.140625 -2.59375 L 4.828125 -1.53125 L -3.84375 -13.546875 L -0.625 -14.578125 L 5.40625 -6.109375 L 5.5625 -16.546875 L 8.4375 -17.453125 L 14.515625 -8.9375 L 14.625 -19.421875 Z M 17.59375 -20.375 "/></g></g></g><g fill="#ff5722" fill-opacity="1"><g transform="translate(36.703902, 42.973669)"><g><path d="M 12.796875 -0.890625 L 12.453125 1.6875 L 1.65625 0.21875 L 3.546875 -13.734375 L 14.09375 -12.296875 L 13.75 -9.703125 L 6.40625 -10.703125 L 5.984375 -7.671875 L 12.453125 -6.796875 L 12.125 -4.296875 L 5.65625 -5.171875 L 5.203125 -1.921875 Z M 12.796875 -0.890625 "/></g></g></g><g fill="#ff5722" fill-opacity="1"><g transform="translate(55.875624, 46.536312)"><g><path d="M 14.03125 -0.515625 C 14.625 0.0859375 14.972656 0.757812 15.078125 1.5 C 15.179688 2.25 15.019531 3 14.59375 3.75 C 13.988281 4.832031 13.109375 5.429688 11.953125 5.546875 C 10.796875 5.660156 9.414062 5.269531 7.8125 4.375 L 1.453125 0.8125 L 8.328125 -11.46875 L 14.328125 -8.109375 C 15.828125 -7.265625 16.816406 -6.332031 17.296875 -5.3125 C 17.773438 -4.300781 17.742188 -3.304688 17.203125 -2.328125 C 16.859375 -1.734375 16.410156 -1.28125 15.859375 -0.96875 C 15.316406 -0.65625 14.707031 -0.503906 14.03125 -0.515625 Z M 9.953125 -7.75 L 8.34375 -4.859375 L 11.171875 -3.28125 C 11.867188 -2.882812 12.46875 -2.707031 12.96875 -2.75 C 13.46875 -2.789062 13.847656 -3.050781 14.109375 -3.53125 C 14.378906 -4.007812 14.398438 -4.46875 14.171875 -4.90625 C 13.941406 -5.351562 13.476562 -5.773438 12.78125 -6.171875 Z M 8.796875 2.109375 C 9.554688 2.523438 10.191406 2.71875 10.703125 2.6875 C 11.210938 2.65625 11.613281 2.378906 11.90625 1.859375 C 12.46875 0.835938 11.992188 -0.09375 10.484375 -0.9375 L 7.171875 -2.796875 L 5.484375 0.25 Z M 8.796875 2.109375 "/></g></g></g><g fill="#ff5722" fill-opacity="1"><g transform="translate(73.910389, 57.845507)"><g><path d="M 12.15625 -7.296875 L 16.0625 -2.25 C 17 -1.039062 17.597656 0.203125 17.859375 1.484375 C 18.117188 2.773438 18.03125 4 17.59375 5.15625 C 17.15625 6.320312 16.378906 7.335938 15.265625 8.203125 C 14.148438 9.066406 12.972656 9.5625 11.734375 9.6875 C 10.503906 9.820312 9.296875 9.601562 8.109375 9.03125 C 6.929688 8.46875 5.875 7.582031 4.9375 6.375 L 1.03125 1.328125 Z M 6.953125 4.609375 C 7.816406 5.722656 8.8125 6.367188 9.9375 6.546875 C 11.070312 6.734375 12.171875 6.414062 13.234375 5.59375 C 14.296875 4.769531 14.878906 3.785156 14.984375 2.640625 C 15.097656 1.503906 14.722656 0.378906 13.859375 -0.734375 L 12.03125 -3.09375 L 5.125 2.25 Z M 6.953125 4.609375 "/></g></g></g><g fill="#ff5722" fill-opacity="1"><g transform="translate(86.535846, 76.481839)"><g><path d="M 5.921875 11.390625 L 3.40625 12.09375 L 0.453125 1.609375 L 14 -2.203125 L 16.875 8.046875 L 14.375 8.75 L 12.375 1.609375 L 9.421875 2.4375 L 11.1875 8.734375 L 8.75 9.421875 L 6.984375 3.125 L 3.84375 4.015625 Z M 5.921875 11.390625 "/></g></g></g><g fill="#ff5722" fill-opacity="1"><g transform="translate(90.728244, 95.575844)"><g><path d="M -0.734375 6.265625 C -0.640625 5.148438 -0.40625 4.085938 -0.03125 3.078125 C 0.34375 2.066406 0.800781 1.265625 1.34375 0.671875 L 3.703125 1.96875 C 3.203125 2.53125 2.785156 3.210938 2.453125 4.015625 C 2.128906 4.828125 1.9375 5.648438 1.875 6.484375 C 1.800781 7.398438 1.878906 8.085938 2.109375 8.546875 C 2.347656 9.015625 2.691406 9.269531 3.140625 9.3125 C 3.484375 9.332031 3.773438 9.222656 4.015625 8.984375 C 4.253906 8.742188 4.457031 8.425781 4.625 8.03125 C 4.800781 7.632812 4.992188 7.09375 5.203125 6.40625 C 5.546875 5.351562 5.867188 4.5 6.171875 3.84375 C 6.484375 3.1875 6.9375 2.632812 7.53125 2.1875 C 8.132812 1.738281 8.90625 1.550781 9.84375 1.625 C 10.65625 1.6875 11.375 1.960938 12 2.453125 C 12.625 2.953125 13.09375 3.660156 13.40625 4.578125 C 13.726562 5.492188 13.835938 6.597656 13.734375 7.890625 C 13.660156 8.773438 13.484375 9.640625 13.203125 10.484375 C 12.921875 11.328125 12.554688 12.050781 12.109375 12.65625 L 9.71875 11.46875 C 10.5625 10.21875 11.035156 8.945312 11.140625 7.65625 C 11.210938 6.75 11.113281 6.066406 10.84375 5.609375 C 10.582031 5.148438 10.210938 4.898438 9.734375 4.859375 C 9.253906 4.816406 8.878906 5.039062 8.609375 5.53125 C 8.335938 6.019531 8.046875 6.769531 7.734375 7.78125 C 7.390625 8.820312 7.0625 9.671875 6.75 10.328125 C 6.445312 10.992188 6.003906 11.550781 5.421875 12 C 4.835938 12.445312 4.078125 12.632812 3.140625 12.5625 C 2.335938 12.5 1.625 12.21875 1 11.71875 C 0.375 11.21875 -0.09375 10.5 -0.40625 9.5625 C -0.726562 8.632812 -0.835938 7.535156 -0.734375 6.265625 Z M -0.734375 6.265625 "/></g></g></g><g fill="#ff5722" fill-opacity="1"><g transform="translate(87.845398, 114.445647)"><g><path d="M 12.5 6.703125 L 11.3125 9.71875 L -1.796875 4.578125 L -0.609375 1.5625 Z M 12.5 6.703125 "/></g></g></g><g fill="#ff5722" fill-opacity="1"><g transform="translate(82.876799, 126.335426)"><g><path d="M -1.546875 13.25 L -3.4375 15.53125 L -7.84375 11.890625 C -7.789062 10.941406 -7.5625 9.976562 -7.15625 9 C -6.757812 8.03125 -6.238281 7.15625 -5.59375 6.375 C -4.65625 5.25 -3.570312 4.429688 -2.34375 3.921875 C -1.125 3.421875 0.117188 3.269531 1.390625 3.46875 C 2.671875 3.664062 3.847656 4.207031 4.921875 5.09375 C 5.992188 5.976562 6.742188 7.03125 7.171875 8.25 C 7.609375 9.46875 7.6875 10.726562 7.40625 12.03125 C 7.132812 13.332031 6.53125 14.554688 5.59375 15.703125 C 4.8125 16.648438 3.941406 17.378906 2.984375 17.890625 C 2.023438 18.398438 1.019531 18.664062 -0.03125 18.6875 L -0.1875 15.84375 C 1.269531 15.738281 2.453125 15.140625 3.359375 14.046875 C 3.921875 13.359375 4.28125 12.625 4.4375 11.84375 C 4.601562 11.070312 4.546875 10.316406 4.265625 9.578125 C 3.984375 8.835938 3.503906 8.1875 2.828125 7.625 C 2.160156 7.070312 1.4375 6.726562 0.65625 6.59375 C -0.113281 6.457031 -0.863281 6.53125 -1.59375 6.8125 C -2.332031 7.101562 -2.988281 7.585938 -3.5625 8.265625 C -4.164062 8.992188 -4.550781 9.78125 -4.71875 10.625 Z M -1.546875 13.25 "/></g></g></g><g fill="#ff5722" fill-opacity="1"><g transform="translate(68.384244, 142.096147)"><g><path d="M -6.4375 19.21875 L -12.9375 6.734375 L -10.5625 5.5 L -0.390625 9.84375 L -4.34375 2.265625 L -1.484375 0.765625 L 5.015625 13.25 L 2.640625 14.5 L -7.515625 10.15625 L -3.578125 17.734375 Z M -6.4375 19.21875 "/></g></g></g></g></g></svg>